<?xml version="1.0" standalone="no"?>
<!DOCTYPE svg PUBLIC "-//W3C//DTD SVG 20010904//EN"
 "http://www.w3.org/TR/2001/REC-SVG-20010904/DTD/svg10.dtd">
<svg version="1.0" xmlns="http://www.w3.org/2000/svg"
 width="220.000000pt" height="220.000000pt" viewBox="0 0 220.000000 220.000000"
 preserveAspectRatio="xMidYMid meet">
<metadata>
Created by potrace 1.11, written by Peter Selinger 2001-2013
</metadata>
<g transform="translate(0.000000,220.000000) scale(0.100000,-0.100000)"
fill="#000000" stroke="none">
<path d="M1041 1957 c3 -20 -13 -77 -22 -83 -5 -3 -9 4 -9 15 0 12 -5 21 -11
21 -7 0 -9 10 -7 25 5 22 2 24 -28 23 -27 -1 -31 -4 -23 -14 11 -14 4 -70 -11
-79 -9 -5 -31 75 -24 86 4 7 -46 2 -53 -5 -7 -7 52 -136 62 -136 16 0 32 19
36 43 5 26 23 23 29 -5 7 -29 45 -37 52 -11 3 10 15 41 26 69 21 51 21 52 1
57 -11 3 -19 0 -18 -6z"/>
<path d="M1138 1954 c-90 -48 -35 -141 79 -135 34 2 70 41 67 74 -3 31 -17 47
-57 65 -36 15 -55 15 -89 -4z m94 -38 c13 -19 9 -52 -10 -69 -14 -13 -22 -14
-41 -4 -13 7 -29 19 -34 28 -14 22 -1 67 21 72 19 4 53 -10 64 -27z"/>
<path d="M1309 1951 c9 -6 12 -28 9 -75 -2 -41 1 -65 7 -62 6 2 21 -1 34 -6
19 -7 22 -6 15 4 -6 7 -11 26 -13 42 -2 25 -1 27 11 15 8 -8 22 -26 32 -40 9
-15 28 -29 41 -32 32 -6 31 3 -1 38 l-25 27 23 12 c60 30 17 72 -81 80 -36 2
-59 1 -52 -3z m110 -40 c8 -15 7 -20 -6 -25 -25 -10 -53 3 -53 25 0 26 46 26
59 0z"/>
<path d="M737 1939 c-9 -5 -21 -8 -26 -5 -5 3 -5 -9 -2 -27 4 -17 4 -51 1 -75
-7 -42 0 -59 19 -47 6 3 29 8 53 11 47 7 68 19 68 40 0 12 -3 12 -22 0 -13 -8
-34 -16 -48 -18 -23 -3 -24 0 -25 47 -1 28 2 58 7 68 10 19 2 21 -25 6z"/>
<path d="M1499 1948 c0 -2 -2 -15 -4 -31 -3 -24 -2 -25 11 -12 8 8 21 12 29 9
20 -8 22 -123 3 -125 -18 -1 32 -17 57 -18 11 0 15 2 9 7 -6 4 -10 34 -9 67 1
63 14 75 43 38 10 -15 12 -13 12 10 0 15 -3 27 -7 28 -5 0 -17 2 -28 4 -11 2
-36 5 -56 8 -20 2 -42 8 -48 11 -6 4 -11 6 -12 4z"/>
<path d="M615 1843 c0 -46 2 -83 5 -83 3 0 15 3 26 6 19 5 21 10 14 39 -4 19
-5 36 -3 39 3 2 6 23 6 45 2 38 0 41 -23 39 -25 -2 -26 -3 -25 -85z"/>
<path d="M1677 1906 c10 -16 11 -136 1 -142 -5 -3 -6 -10 -2 -15 3 -5 9 -7 14
-4 5 3 19 1 30 -5 17 -9 19 -8 11 11 -4 12 -6 33 -3 46 3 19 7 21 18 12 8 -6
14 -8 14 -5 0 4 8 2 18 -3 18 -9 22 -46 8 -69 -4 -7 -6 -12 -4 -13 2 0 10 -2
18 -4 8 -2 24 -7 35 -11 16 -6 18 -5 9 7 -11 16 -13 138 -1 156 4 6 3 14 -3
18 -5 3 -10 4 -10 1 0 -3 -12 -1 -26 4 -19 8 -23 7 -18 -2 4 -7 8 -24 9 -38 1
-23 -2 -26 -24 -22 -38 7 -48 18 -43 51 3 25 1 29 -27 33 -19 3 -28 1 -24 -6z"/>
<path d="M446 1890 c-16 -5 -33 -7 -38 -4 -4 3 -8 0 -8 -5 0 -6 4 -11 8 -11
11 0 9 -141 -3 -159 -6 -10 -4 -13 6 -9 8 3 37 13 66 22 63 21 103 63 103 110
0 58 -52 80 -134 56z m92 -46 c13 -23 -13 -71 -49 -89 -16 -9 -29 -13 -30 -10
0 3 -1 31 -1 62 0 47 3 58 18 64 22 8 49 -4 62 -27z"/>
<path d="M1017 1794 c-1 -1 -33 -4 -72 -7 -64 -6 -194 -27 -255 -42 -14 -3
-36 -8 -50 -11 -14 -3 -73 -21 -132 -41 l-106 -36 -1 -236 c0 -130 0 -242 -1
-249 0 -9 -10 -11 -35 -6 l-36 6 3 -153 3 -153 32 -8 c34 -9 39 -24 34 -94 -1
-11 4 -33 10 -50 7 -16 13 -31 14 -34 2 -9 39 -70 79 -131 51 -80 181 -216
264 -277 54 -40 225 -142 235 -141 3 1 55 -20 83 -33 15 -7 29 -6 45 3 13 7
25 11 27 10 5 -6 122 34 122 42 0 4 11 7 25 7 14 0 25 4 25 9 0 5 10 13 23 17
42 13 183 113 248 176 79 75 134 148 190 248 36 65 42 84 44 145 2 39 3 75 4
82 1 6 21 15 46 19 l45 6 0 154 c0 166 0 165 -54 145 -17 -7 -27 -6 -33 2 -5
7 -9 119 -8 250 l0 237 -78 31 c-81 31 -257 81 -257 73 0 -3 -8 0 -18 5 -9 5
-44 12 -77 16 -33 3 -76 9 -95 12 -32 5 -287 12 -293 7z"/>
</g>
</svg>
